<svg width="120" height="120" viewBox="0 0 120 120" fill="none" xmlns="http://www.w3.org/2000/svg">
<path d="M120 60C120 93.1371 93.1371 120 60 120C26.8629 120 0 93.1371 0 60C0 26.8629 26.8629 0 60 0C93.1371 0 120 26.8629 120 60Z" fill="#FF6A6A"/>
<path d="M31.98 103.544C30.732 103.544 29.432 103.388 28.08 103.076C26.832 102.868 25.532 102.452 24.18 101.828C23.452 100.788 22.464 100.268 21.216 100.268C20.488 99.436 19.708 98.864 18.876 98.552C18.252 98.136 17.576 97.512 16.848 96.68C16.224 95.848 15.652 95.38 15.132 95.276C13.988 93.924 12.896 92.52 11.856 91.064C10.816 89.608 9.88 88.1 9.048 86.54V86.228C9.048 85.5 8.788 84.928 8.268 84.512C7.852 84.096 7.436 83.576 7.02 82.952C6.604 82.224 6.5 81.496 6.708 80.768C6.916 79.936 6.604 79.208 5.772 78.584C5.46 77.648 5.252 76.608 5.148 75.464C5.148 74.32 4.888 73.384 4.368 72.656C4.16 72.24 4.056 71.98 4.056 71.876C4.056 71.46 4.16 71.096 4.368 70.784C4.576 70.472 4.732 70.108 4.836 69.692C4.316 69.588 4.056 69.172 4.056 68.444V67.976C4.056 66.832 4.524 65.948 5.46 65.324C6.396 64.7 7.384 64.388 8.424 64.388C10.088 64.388 11.076 65.012 11.388 66.26L11.856 67.976C11.44 68.496 11.232 68.912 11.232 69.224C11.232 69.536 11.596 70.056 12.324 70.784C12.428 71.2 12.48 71.772 12.48 72.5C14.768 76.036 17.836 79.208 21.684 82.016L21.84 82.328C22.256 82.64 22.62 82.9 22.932 83.108C23.244 83.212 23.608 83.368 24.024 83.576C25.168 84.304 25.792 84.876 25.896 85.292C26.104 85.708 26.988 85.916 28.548 85.916C28.86 85.916 29.068 86.176 29.172 86.696C29.38 87.216 29.64 87.58 29.952 87.788C30.264 87.892 30.628 87.892 31.044 87.788C31.46 87.58 31.824 87.58 32.136 87.788C32.344 87.892 32.5 88.048 32.604 88.256C32.812 88.36 32.968 88.464 33.072 88.568C33.28 88.672 34.216 89.036 35.88 89.66C37.544 90.18 39.208 90.752 40.872 91.376C42.64 91.896 43.732 92.208 44.148 92.312C44.98 91.376 45.864 90.596 46.8 89.972C47.736 89.244 48.568 88.36 49.296 87.32C50.024 87.112 50.44 86.8 50.544 86.384C50.648 85.864 50.752 85.292 50.856 84.668C51.376 83.94 51.844 83.108 52.26 82.172C52.676 81.236 53.144 80.456 53.664 79.832C54.808 78.48 55.484 77.024 55.692 75.464C56.004 73.904 56.576 72.604 57.408 71.564C57.616 71.356 57.928 71.148 58.344 70.94C58.864 70.732 59.124 70.524 59.124 70.316V70.16C59.124 69.12 59.332 68.08 59.748 67.04C60.268 65.896 60.736 64.804 61.152 63.764C61.568 63.348 61.828 62.88 61.932 62.36C62.14 61.736 62.4 61.216 62.712 60.8C63.128 60.384 63.44 60.02 63.648 59.708C63.96 59.396 64.064 58.928 63.96 58.304L64.272 56.12C64.272 55.6 64.376 54.976 64.584 54.248C64.896 53.416 65.104 52.74 65.208 52.22C65.416 51.18 65.728 49.932 66.144 48.476C66.56 46.916 66.976 45.72 67.392 44.888C68.12 43.536 68.64 42.132 68.952 40.676C69.264 39.116 69.628 37.66 70.044 36.308C70.772 35.892 71.136 35.216 71.136 34.28C71.344 33.864 71.604 32.876 71.916 31.316C72.228 29.756 72.384 28.768 72.384 28.352C72.072 28.352 71.708 28.248 71.292 28.04C70.98 27 71.084 25.804 71.604 24.452C72.124 22.996 72.8 21.592 73.632 20.24C74.464 18.888 75.088 17.796 75.504 16.964C76.232 15.82 77.116 14.832 78.156 14C79.196 13.064 80.444 12.596 81.9 12.596C82.42 12.596 82.992 12.648 83.616 12.752C84.24 12.752 84.708 12.96 85.02 13.376C86.372 13.896 87.048 14.676 87.048 15.716C87.048 16.444 86.788 17.328 86.268 18.368C85.748 19.304 85.384 20.24 85.176 21.176C83.928 21.696 83.2 22.996 82.992 25.076C82.888 27.052 82.68 28.612 82.368 29.756C82.264 30.276 82.056 30.692 81.744 31.004C81.432 31.316 81.536 31.784 82.056 32.408V33.344L81.588 33.656L82.212 34.748C82.212 35.06 82.212 35.736 82.212 36.776C82.316 37.712 82.42 38.648 82.524 39.584C82.628 40.416 82.628 40.884 82.524 40.988C82.42 41.196 82.212 41.3 81.9 41.3C81.276 41.3 80.86 41.04 80.652 40.52C80.34 39.688 80.184 38.752 80.184 37.712C80.288 36.672 80.028 35.736 79.404 34.904C79.3 34.592 79.248 34.28 79.248 33.968C79.248 33.656 79.248 33.448 79.248 33.344C79.248 32.928 79.248 32.616 79.248 32.408C79.352 32.2 79.404 32.044 79.404 31.94C79.404 31.732 78.988 31.004 78.156 29.756V28.196C77.012 29.652 76.18 31.108 75.66 32.564C75.14 32.98 74.828 33.5 74.724 34.124C74.62 34.748 74.464 35.32 74.256 35.84C73.216 38.544 72.176 41.248 71.136 43.952C70.2 46.656 69.264 49.36 68.328 52.064C67.6 52.48 67.236 53.052 67.236 53.78C67.236 54.404 67.132 55.028 66.924 55.652L63.96 63.764C63.232 63.972 62.868 64.336 62.868 64.856C62.972 65.272 63.024 65.74 63.024 66.26C63.024 66.988 62.816 67.664 62.4 68.288C62.088 68.808 61.828 69.38 61.62 70.004C60.164 74.06 58.396 78.168 56.316 82.328C54.34 86.488 52 90.284 49.296 93.716C50.752 94.028 52.156 94.288 53.508 94.496C54.86 94.808 56.212 95.068 57.564 95.276C58.916 95.484 60.58 95.692 62.556 95.9C64.636 96.108 66.196 96.316 67.236 96.524C68.38 96.732 69.628 96.888 70.98 96.992C72.332 97.096 73.58 97.148 74.724 97.148H75.816C76.232 97.148 76.544 97.148 76.752 97.148C77.064 97.252 77.48 97.408 78 97.616C78.208 97.72 78.416 97.668 78.624 97.46C78.832 97.356 79.04 97.304 79.248 97.304C79.768 97.2 80.288 97.148 80.808 97.148C81.328 97.252 81.796 97.304 82.212 97.304C82.42 97.2 82.68 97.148 82.992 97.148C83.408 97.148 83.772 97.2 84.084 97.304C84.5 97.512 84.864 97.616 85.176 97.616C85.696 97.616 86.112 97.512 86.424 97.304C86.736 97.2 87.1 97.148 87.516 97.148C88.036 97.564 88.504 97.772 88.92 97.772C89.336 97.772 89.752 97.512 90.168 96.992C91.312 96.888 92.664 96.68 94.224 96.368C95.888 96.056 96.564 95.016 96.252 93.248C96.148 92.416 95.992 91.896 95.784 91.688C95.576 91.48 95.212 91.116 94.692 90.596C94.276 90.284 93.912 89.868 93.6 89.348C93.288 88.828 92.872 88.516 92.352 88.412C92.144 88.204 92.04 87.892 92.04 87.476C92.04 86.852 92.404 86.54 93.132 86.54C93.548 86.54 93.964 86.748 94.38 87.164C94.796 87.372 95.056 87.684 95.16 88.1C95.368 88.516 95.68 88.88 96.096 89.192C96.304 89.608 96.668 89.92 97.188 90.128C97.708 90.336 98.176 90.648 98.592 91.064C99.736 92.728 100.308 94.236 100.308 95.588C100.308 97.564 99.424 99.228 97.656 100.58C95.888 101.932 93.808 102.66 91.416 102.764C91.208 102.556 90.896 102.452 90.48 102.452C90.064 102.452 89.7 102.504 89.388 102.608C89.18 102.712 88.868 102.764 88.452 102.764C86.476 102.66 84.448 102.452 82.368 102.14C80.288 101.828 78.26 101.568 76.284 101.36C76.076 101.36 75.868 101.308 75.66 101.204C75.452 101.204 75.244 101.204 75.036 101.204C74.308 100.684 73.372 100.424 72.228 100.424C71.188 100.424 70.252 100.32 69.42 100.112C69.108 100.008 68.38 99.852 67.236 99.644C66.196 99.436 65.156 99.228 64.116 99.02C63.18 98.812 62.608 98.76 62.4 98.864C61.256 98.656 60.06 98.344 58.812 97.928C57.668 97.616 56.524 97.408 55.38 97.304C54.132 97.096 52.832 96.784 51.48 96.368C50.232 96.056 48.984 95.744 47.736 95.432C45.448 97.928 43.004 99.904 40.404 101.36C37.804 102.816 34.996 103.544 31.98 103.544ZM30.888 100.892C33.488 100.892 35.672 100.216 37.44 98.864C39.312 97.512 41.08 95.9 42.744 94.028C41.704 93.82 40.664 93.56 39.624 93.248C38.584 92.936 37.544 92.572 36.504 92.156C35.568 91.74 34.736 91.428 34.008 91.22C33.384 90.908 32.552 90.648 31.512 90.44C31.096 90.336 30.628 90.18 30.108 89.972C29.588 89.764 29.068 89.608 28.548 89.504C27.82 89.192 27.144 88.776 26.52 88.256C25.896 87.632 25.168 87.424 24.336 87.632C23.816 87.424 23.244 87.216 22.62 87.008C22.1 86.8 21.58 86.54 21.06 86.228C20.54 85.812 20.176 85.448 19.968 85.136C19.76 84.72 19.24 84.616 18.408 84.824L17.16 84.2C16.744 83.784 16.38 83.368 16.068 82.952C15.86 82.536 15.392 82.328 14.664 82.328C13.832 82.328 12.896 81.86 11.856 80.924C10.816 79.884 10.036 79 9.516 78.272C10.036 79.624 10.556 80.924 11.076 82.172C11.596 83.42 12.116 84.668 12.636 85.916C12.844 86.644 13.104 87.268 13.416 87.788C13.832 88.204 13.936 88.776 13.728 89.504C13.728 89.712 13.988 89.972 14.508 90.284C15.028 90.492 15.496 90.908 15.912 91.532C16.12 92.364 16.38 92.832 16.692 92.936C17.004 93.04 17.316 93.352 17.628 93.872C18.46 94.808 18.928 95.536 19.032 96.056C19.136 96.576 20.072 96.94 21.84 97.148L23.244 98.084C23.66 98.812 24.128 99.176 24.648 99.176C25.168 99.28 25.74 99.436 26.364 99.644C27.196 99.852 27.924 100.112 28.548 100.424C29.276 100.736 30.056 100.892 30.888 100.892Z" fill="black"/>
</svg>
